<svg xmlns="http://www.w3.org/2000/svg" xmlns:xlink="http://www.w3.org/1999/xlink" width="1920" zoomAndPan="magnify" viewBox="0 0 1440 809.999993" height="1080" preserveAspectRatio="xMidYMid meet" version="1.0"><defs><clipPath id="a939b70119"><path d="M 0 185 L 1440 185 L 1440 795.75 L 0 795.75 Z M 0 185 " clip-rule="nonzero"/></clipPath></defs><rect x="-144" width="1728" fill="#ffffff" y="-80.999999" height="971.999992" fill-opacity="1"/><rect x="-144" width="1728" fill="#ffffff" y="-80.999999" height="971.999992" fill-opacity="1"/><rect x="-144" width="1728" fill="#ffffff" y="-80.999999" height="971.999992" fill-opacity="1"/><path fill="#9dc5d0" d="M 1440 744.363281 C 1347.414062 758.746094 1250.707031 746.488281 1145.195312 707.777344 C 991.988281 651.539062 916.933594 577.367188 803.328125 465.089844 C 775.695312 437.777344 744.386719 406.832031 709.585938 373.941406 C 631.734375 300.339844 558.207031 230.804688 436.3125 164.203125 C 326.214844 104.023438 185.640625 51.597656 0 1.707031 L 0 3.046875 C 441.007812 121.941406 566.039062 239.898438 708.75 374.839844 C 743.53125 407.714844 774.84375 438.660156 802.460938 465.953125 C 916.1875 578.339844 991.316406 652.585938 1144.777344 708.914062 C 1191.117188 725.921875 1235.675781 737.691406 1278.910156 744.472656 C 1235.4375 737.886719 1190.6875 726.5625 1144.117188 710.019531 C 1113.390625 698.984375 1085.535156 687.183594 1058.9375 673.945312 C 957.296875 623.253906 890.367188 558.957031 797.734375 469.949219 C 769.203125 442.546875 739.703125 414.203125 705.757812 382.914062 C 625.753906 309.179688 550.1875 239.523438 428.335938 172.128906 C 318.347656 111.292969 180.3125 58.042969 0 7.144531 L 0 8.484375 C 429.199219 129.921875 557.964844 248.363281 704.917969 383.8125 C 738.863281 415.101562 768.351562 443.429688 796.878906 470.832031 C 889.585938 559.914062 956.578125 624.257812 1058.398438 675.050781 C 1085.027344 688.304688 1112.925781 700.121094 1143.699219 711.1875 C 1188.816406 727.207031 1232.210938 738.359375 1274.320312 744.953125 C 1231.734375 738.683594 1188.082031 727.921875 1143.042969 712.261719 C 1113.300781 701.945312 1085.398438 690.414062 1057.753906 677.011719 C 954.886719 626.964844 886.460938 563.070312 791.777344 474.660156 C 763.804688 448.546875 734.886719 421.535156 701.898438 391.90625 C 550.460938 255.777344 417.757812 136.722656 0 12.691406 L 0 13.984375 C 417.230469 137.890625 549.796875 256.824219 701.089844 392.800781 C 734.0625 422.445312 762.980469 449.441406 790.941406 475.558594 C 885.714844 564.042969 954.183594 627.980469 1057.214844 678.117188 C 1084.921875 691.535156 1112.867188 703.078125 1142.652344 713.429688 C 1178.664062 725.949219 1213.585938 735.386719 1247.667969 741.96875 C 1213.207031 735.65625 1178.070312 726.726562 1141.964844 714.523438 C 1112.65625 704.621094 1084.710938 693.34375 1056.570312 680.0625 C 952.34375 630.628906 882.332031 567.09375 785.433594 479.160156 C 758.148438 454.394531 729.933594 428.789062 698.070312 400.863281 C 542.085938 264.179688 405.390625 144.582031 0 18.277344 L 0 19.550781 C 404.863281 145.753906 541.425781 265.234375 697.261719 401.792969 C 729.125 429.714844 757.339844 455.304688 784.613281 480.074219 C 881.585938 568.066406 951.65625 631.648438 1056.046875 681.167969 C 1084.234375 694.480469 1112.207031 705.773438 1141.574219 715.6875 C 1178.089844 728.027344 1213.492188 737.304688 1248.011719 743.667969 C 1213.113281 737.566406 1177.503906 728.8125 1140.886719 716.78125 C 1111.910156 707.253906 1083.933594 696.246094 1055.375 683.128906 C 949.625 634.21875 877.859375 570.9375 778.539062 483.363281 C 752.121094 460.0625 724.789062 435.96875 694.238281 409.851562 C 533.515625 272.53125 392.691406 152.34375 0 23.917969 L 0 25.199219 C 392.179688 153.519531 532.875 273.589844 693.429688 410.78125 C 723.980469 436.878906 751.3125 460.972656 777.730469 484.277344 C 877.125 571.925781 948.949219 635.25 1054.867188 684.234375 C 1083.472656 697.382812 1111.492188 708.40625 1140.5 717.945312 C 1177.144531 729.988281 1212.675781 739.023438 1247.308594 745.167969 C 1212.308594 739.269531 1176.570312 730.761719 1139.792969 719.023438 C 1111.191406 709.886719 1083.1875 699.148438 1054.191406 686.195312 C 946.765625 637.792969 873.101562 574.675781 771.148438 487.328125 C 745.730469 465.550781 719.445312 443.042969 690.378906 418.828125 L 688.328125 417.121094 C 599.226562 342.859375 515.0625 272.726562 394.871094 203.164062 C 285.820312 140.035156 158.441406 83.933594 0 29.570312 L 0 30.910156 C 378.917969 161.003906 523.070312 281.003906 687.550781 418.050781 L 689.601562 419.753906 C 718.652344 443.984375 744.9375 466.496094 770.339844 488.257812 C 872.367188 575.679688 946.09375 638.824219 1053.683594 687.300781 C 1082.722656 700.285156 1110.773438 711.039062 1139.4375 720.191406 C 1176.5 732.023438 1212.4375 740.890625 1247.445312 746.8125 C 1212.074219 741.128906 1175.933594 732.820312 1138.71875 721.28125 C 1110.503906 712.53125 1082.46875 702.050781 1052.996094 689.246094 C 943.683594 641.292969 867.96875 578.265625 763.160156 491.023438 C 738.953125 470.890625 713.925781 450.054688 686.550781 427.800781 L 681 423.300781 C 590.191406 349.5 504.425781 279.789062 384.535156 209.804688 C 276.238281 146.585938 152.097656 90.199219 0 35.410156 L 0 36.714844 C 365.128906 168.226562 512.296875 287.769531 680.222656 424.242188 L 685.769531 428.757812 C 713.148438 451 738.175781 471.832031 762.367188 491.964844 C 867.253906 579.269531 943.039062 642.339844 1052.519531 690.382812 C 1082.019531 703.199219 1110.097656 713.683594 1138.359375 722.449219 C 1183.636719 736.488281 1227.230469 746.15625 1269.488281 751.558594 C 1226.863281 746.421875 1183.027344 737.191406 1137.65625 723.542969 C 1109.324219 715.015625 1081.226562 704.800781 1051.800781 692.3125 C 940.691406 645.152344 859.023438 579.042969 755.605469 495.347656 C 732.492188 476.648438 708.601562 457.3125 682.703125 436.789062 L 672.21875 428.472656 C 508.164062 298.417969 352.339844 174.921875 0 41.363281 L 0 42.675781 C 351.863281 176.105469 507.550781 299.5 671.457031 429.429688 L 681.957031 437.746094 C 707.839844 458.253906 731.726562 477.59375 754.828125 496.304688 C 858.320312 580.0625 940.0625 646.214844 1051.320312 693.449219 C 1080.792969 705.9375 1108.917969 716.167969 1137.296875 724.707031 C 1183.832031 738.710938 1228.78125 748.214844 1272.421875 753.277344 C 1228.558594 748.480469 1183.398438 739.460938 1136.5625 725.785156 C 1108.378906 717.558594 1080.269531 707.613281 1050.617188 695.378906 C 937.265625 648.609375 853.070312 582.410156 746.464844 498.589844 C 724.949219 481.675781 702.691406 464.175781 678.859375 445.765625 L 661.746094 432.527344 C 495.238281 303.75 337.039062 181.421875 0 47.355469 L 0 48.6875 C 336.566406 182.601562 494.636719 304.824219 660.996094 433.5 L 678.109375 446.722656 C 701.941406 465.148438 724.1875 482.632812 745.714844 499.546875 C 852.382812 583.425781 936.652344 649.683594 1050.140625 696.515625 C 1079.835938 708.761719 1107.988281 718.710938 1136.234375 726.949219 C 1183.695312 740.808594 1229.46875 750.042969 1273.878906 754.800781 C 1229.242188 750.316406 1183.246094 741.5625 1135.488281 728.042969 C 1107.554688 720.132812 1079.402344 710.453125 1049.421875 698.445312 C 933.601562 652.019531 846.636719 585.59375 736.5625 501.523438 C 716.886719 486.492188 696.558594 470.964844 675.03125 454.738281 C 666.382812 448.230469 657.78125 441.742188 649.191406 435.25 C 480.863281 308.164062 320.839844 187.402344 0 53.484375 L 0 54.8125 C 320.390625 188.609375 480.285156 309.257812 648.445312 436.222656 C 657.03125 442.710938 665.648438 449.203125 674.28125 455.722656 C 695.808594 471.9375 716.15625 487.464844 735.8125 502.496094 C 845.976562 586.625 932.988281 653.078125 1048.972656 699.582031 C 1078.984375 711.605469 1107.183594 721.296875 1135.15625 729.210938 C 1184.777344 743.261719 1232.351562 752.296875 1278.367188 756.582031 C 1232.015625 752.53125 1184.191406 743.945312 1134.410156 730.285156 C 1106.613281 722.671875 1078.429688 713.25 1048.242188 701.496094 C 929.605469 655.324219 839.605469 588.539062 725.667969 504.003906 C 708.179688 491.023438 690.109375 477.605469 671.183594 463.710938 C 658.648438 454.5 646.1875 445.316406 633.738281 436.132812 C 542.855469 369.125 448.890625 299.828125 332.726562 230.027344 C 232.621094 169.871094 122.882812 113.769531 0 59.816406 L 0 61.050781 C 303.023438 193.878906 463.878906 312.414062 633.007812 437.117188 C 645.453125 446.300781 657.929688 455.484375 670.46875 464.699219 C 689.378906 478.59375 707.460938 492.011719 724.949219 504.976562 C 838.960938 589.589844 929.007812 656.402344 1047.792969 702.632812 C 1078.023438 714.402344 1106.253906 723.839844 1134.082031 731.484375 C 1183.773438 745.109375 1231.421875 753.828125 1277.5 757.863281 C 1231.109375 754.046875 1183.21875 745.78125 1133.347656 732.53125 C 1105.730469 725.203125 1077.5 716.0625 1047.042969 704.5625 C 925.265625 658.570312 831.886719 591.25 713.65625 506.011719 C 698.695312 495.226562 683.289062 484.113281 667.339844 472.699219 C 649.761719 460.109375 632.019531 447.320312 614.875 434.949219 C 453.152344 318.355469 286.414062 198.214844 0 66.117188 L 0 67.472656 C 285.996094 199.425781 452.570312 319.453125 614.15625 435.953125 C 631.300781 448.320312 649.042969 461.109375 666.621094 473.6875 C 682.570312 485.113281 697.980469 496.214844 712.953125 507.011719 C 831.242188 592.292969 924.671875 659.660156 1046.625 705.699219 C 1077.097656 717.214844 1105.375 726.382812 1133.019531 733.726562 C 1184.414062 747.367188 1233.621094 755.894531 1281.160156 759.488281 C 1233.320312 756.105469 1183.855469 748.046875 1132.253906 734.789062 C 1104.773438 727.730469 1076.515625 718.84375 1045.859375 707.628906 C 920.539062 661.722656 823.417969 593.6875 700.460938 507.535156 C 688.433594 499.101562 676.121094 490.46875 663.496094 481.660156 C 639.246094 464.742188 614.816406 447.5 591.179688 430.820312 C 431.113281 317.855469 266.09375 201.472656 0 72.625 L 0 73.976562 C 265.703125 202.695312 430.558594 318.957031 590.476562 431.824219 C 614.113281 448.5 638.542969 465.746094 662.808594 482.675781 C 675.433594 491.488281 687.730469 500.101562 699.757812 508.539062 C 822.792969 594.734375 919.972656 662.832031 1045.441406 708.761719 C 1076.140625 720.011719 1104.429688 728.910156 1131.957031 735.984375 C 1182.980469 749.085938 1231.875 757.28125 1279.101562 760.671875 C 1231.589844 757.476562 1182.453125 749.777344 1131.179688 737.046875 C 1103.832031 730.257812 1075.542969 721.628906 1044.679688 710.679688 C 915.351562 664.789062 814.023438 595.78125 685.753906 508.402344 C 677.199219 502.585938 668.507812 496.660156 659.664062 490.648438 C 626.78125 468.304688 593.660156 445.375 561.632812 423.195312 C 405.132812 314.851562 243.941406 203.265625 0 79.210938 L 0 80.597656 C 243.550781 204.503906 404.59375 315.964844 560.945312 424.210938 C 592.972656 446.378906 626.078125 469.304688 658.976562 491.664062 C 667.820312 497.679688 676.511719 503.585938 685.066406 509.417969 C 813.410156 596.84375 914.78125 665.882812 1044.261719 711.84375 C 1075.167969 722.808594 1103.503906 731.4375 1130.878906 738.242188 C 1197.914062 754.890625 1262.617188 763.207031 1324.523438 763.207031 C 1346.402344 763.207031 1367.828125 761.871094 1388.988281 759.792969 C 1382.375 760.515625 1375.777344 761.277344 1369.105469 761.804688 C 1294.109375 767.132812 1214.925781 759.644531 1130.101562 739.289062 C 1102.875 732.769531 1074.539062 724.425781 1043.480469 713.746094 C 909.484375 667.691406 803.371094 597.382812 669.015625 508.371094 L 655.820312 499.636719 C 611.882812 470.546875 569.605469 441.742188 524.84375 411.257812 C 374.46875 308.820312 219.503906 203.34375 0 86.050781 L 0 87.441406 C 219.140625 204.582031 373.9375 309.941406 524.15625 412.273438 C 568.917969 442.757812 611.195312 471.5625 655.132812 500.65625 L 668.328125 509.40625 C 802.757812 598.457031 908.945312 668.800781 1043.09375 714.910156 C 1074.179688 725.589844 1102.546875 733.953125 1129.800781 740.488281 C 1177.984375 752.046875 1224.921875 759.273438 1270.519531 762.394531 C 1224.769531 759.601562 1177.691406 752.820312 1129.007812 741.550781 C 1101.75 735.238281 1073.386719 727.144531 1042.300781 716.808594 C 902.933594 670.460938 792.183594 599.027344 651.976562 508.613281 C 593.75 471.054688 537.679688 433.320312 478.304688 393.371094 C 337.441406 298.59375 192.328125 201.042969 0 93.039062 L 0 94.4375 C 191.980469 202.289062 336.925781 299.722656 477.617188 394.386719 C 536.992188 434.335938 593.078125 472.070312 651.316406 509.628906 C 791.597656 600.101562 902.40625 671.566406 1041.910156 717.976562 C 1073.027344 728.328125 1101.4375 736.433594 1128.738281 742.746094 C 1176.523438 753.804688 1223.101562 760.714844 1268.34375 763.636719 C 1222.949219 761.03125 1176.242188 754.578125 1127.949219 743.808594 C 1100.675781 737.722656 1072.265625 729.898438 1041.117188 719.875 C 906.117188 676.457031 797.867188 611.589844 648.132812 517.585938 C 571.671875 469.589844 497.886719 420.261719 419.765625 368.046875 C 292.757812 283.160156 162.140625 195.875 0 100.15625 L 0 101.578125 C 161.828125 197.136719 292.257812 284.292969 419.09375 369.066406 C 497.214844 421.292969 571.011719 470.605469 647.472656 518.632812 C 797.300781 612.683594 905.609375 677.578125 1040.730469 721.042969 C 1071.921875 731.082031 1100.359375 738.917969 1127.675781 745.003906 C 1174.894531 755.535156 1220.921875 762.117188 1265.652344 764.859375 C 1220.773438 762.425781 1174.601562 756.300781 1126.871094 746.050781 C 1099.671875 740.21875 1071.234375 732.648438 1039.921875 722.925781 C 899.941406 679.449219 782.832031 611.230469 644.285156 526.558594 C 544.625 465.65625 448.117188 401.089844 345.9375 332.734375 C 238.609375 260.945312 128.144531 187.140625 0 107.589844 L 0 109.027344 C 127.855469 188.414062 238.113281 262.085938 345.265625 333.769531 C 447.441406 402.117188 543.964844 466.6875 643.660156 527.605469 C 782.277344 612.324219 899.445312 680.570312 1039.5625 724.09375 C 1070.90625 733.832031 1099.386719 741.414062 1126.601562 747.246094 C 1173.539062 757.324219 1219.316406 763.625 1263.796875 766.15625 C 1219.171875 763.921875 1173.25 758.113281 1125.777344 748.308594 C 1098.429688 742.65625 1069.960938 735.359375 1038.726562 725.992188 C 893.34375 682.394531 772.34375 613.953125 640.457031 535.550781 C 511.410156 458.820312 385.941406 373.984375 253.125 284.171875 C 172.65625 229.761719 90.097656 173.972656 0 115.15625 L 0 116.621094 C 89.832031 175.261719 172.179688 230.917969 252.4375 285.1875 C 385.28125 375.003906 510.753906 459.851562 639.828125 536.597656 C 771.792969 615.042969 892.863281 683.53125 1038.367188 727.160156 C 1069.648438 736.539062 1098.148438 743.851562 1125.539062 749.507812 C 1184.808594 761.75 1242.191406 767.9375 1297.496094 768.375 C 1242.101562 768.3125 1184.601562 762.453125 1124.703125 750.566406 C 1097.277344 745.125 1068.765625 738.09375 1037.527344 729.058594 C 901.363281 689.679688 783.175781 629.253906 636.613281 544.523438 C 470.300781 448.367188 315.449219 341.140625 136.152344 216.96875 C 91.945312 186.359375 46.691406 155.054688 0 123.011719 L 0 124.496094 C 46.449219 156.378906 91.472656 187.523438 135.464844 217.988281 C 314.777344 342.15625 469.640625 449.414062 635.984375 545.570312 C 782.636719 630.359375 900.898438 690.816406 1037.199219 730.226562 C 1068.464844 739.277344 1097.011719 746.320312 1124.460938 751.765625 C 1182.71875 763.316406 1239.152344 769.152344 1293.59375 769.523438 C 1239.078125 769.527344 1182.503906 763.992188 1123.636719 752.8125 C 1096.828125 747.726562 1068.273438 740.949219 1036.347656 732.125 C 885.90625 689.902344 753.464844 621.324219 632.769531 553.496094 C 422.472656 435.328125 225.980469 294.125 0 131.082031 L 0 132.585938 C 225.703125 295.4375 422.039062 436.488281 632.167969 554.574219 C 752.941406 622.433594 885.445312 691.054688 1036.015625 733.292969 C 1067.988281 742.148438 1096.5625 748.921875 1123.398438 754.007812 C 1181.195312 765 1237.195312 770.519531 1291.21875 770.726562 C 1237.101562 770.898438 1180.949219 765.699219 1122.546875 755.070312 C 1095.691406 750.179688 1067.105469 743.671875 1035.164062 735.175781 C 910.546875 701.554688 789.054688 649.894531 628.9375 562.488281 C 413.808594 445.03125 213.152344 301.121094 0 139.441406 L 0 140.96875 C 212.917969 302.453125 413.402344 446.203125 628.339844 563.5625 C 788.5625 651.03125 910.128906 702.707031 1034.835938 736.375 C 1066.820312 744.871094 1095.4375 751.375 1122.335938 756.265625 C 1165.261719 764.085938 1207.222656 768.96875 1248.109375 770.949219 C 1208.402344 769.386719 1166.25 765.113281 1121.46875 757.328125 C 1094.152344 752.558594 1065.535156 746.320312 1033.96875 738.242188 C 906.476562 705.203125 780.363281 653.769531 625.078125 571.460938 C 394.898438 449.445312 183.835938 294.820312 0 148.226562 L 0 149.800781 C 183.703125 296.246094 394.558594 450.648438 624.507812 572.539062 C 779.886719 654.890625 906.074219 706.371094 1033.667969 739.441406 C 1065.25 747.515625 1093.914062 753.769531 1121.261719 758.527344 C 1177.300781 768.277344 1231.695312 773.152344 1284.222656 773.152344 C 1301.121094 773.152344 1317.800781 772.582031 1334.304688 771.570312 C 1270.71875 775.703125 1199.761719 772.742188 1120.390625 759.570312 C 1092.835938 754.996094 1064.171875 749.027344 1032.785156 741.308594 C 902.410156 708.914062 771.640625 657.792969 621.25 580.449219 C 418.546875 476.179688 218.667969 340.113281 0 157.171875 L 0 158.777344 C 218.429688 341.445312 418.152344 477.355469 620.679688 581.527344 C 771.164062 658.925781 902.019531 710.082031 1032.484375 742.507812 C 1063.917969 750.226562 1092.597656 756.207031 1120.183594 760.769531 C 1170.175781 769.078125 1218.785156 773.375 1265.992188 774.066406 C 1220.484375 773.691406 1171.910156 770.132812 1119.316406 761.832031 C 1091.625 757.449219 1062.105469 751.570312 1031.589844 744.363281 C 898.371094 712.667969 762.890625 661.992188 617.402344 589.410156 C 405.660156 483.796875 202.632812 344.753906 0 166.628906 L 0 168.160156 C 79.550781 237.933594 159.777344 302.359375 239.660156 360.285156 C 363.066406 449.757812 489.972656 527.21875 616.867188 590.515625 C 762.425781 663.128906 897.996094 713.851562 1031.320312 745.558594 C 1061.851562 752.78125 1091.398438 758.660156 1119.136719 763.027344 C 1158.839844 769.308594 1197.722656 773.222656 1235.707031 774.792969 C 1198.664062 773.523438 1159.679688 770.222656 1118.238281 764.089844 C 1089.441406 759.707031 1059.878906 754.113281 1030.40625 747.425781 C 892.550781 716.078125 756.1875 667.335938 613.558594 598.398438 C 395.375 492.933594 189.574219 351.230469 0 176.453125 L 0 178.027344 C 74.414062 246.464844 151.792969 310.394531 231.328125 368.75 C 353.867188 458.671875 482.285156 536.296875 613.019531 599.503906 C 755.738281 668.484375 892.175781 717.257812 1030.136719 748.625 C 1059.640625 755.308594 1089.214844 760.917969 1118.058594 765.300781 C 1171.765625 773.257812 1221.640625 776.800781 1268.035156 776.800781 C 1280.121094 776.800781 1291.878906 776.476562 1303.492188 776.011719 C 1223.492188 779.703125 1132.660156 772.9375 1029.222656 750.492188 C 659.089844 670.207031 291.308594 467.539062 0 186.710938 L 0 188.261719 C 42.960938 229.644531 87.640625 269.65625 134 307.742188 C 221.019531 379.25 313.804688 444.6875 409.789062 502.253906 C 609.265625 621.910156 817.585938 705.832031 1028.957031 751.691406 C 1110.070312 769.277344 1187.953125 778.089844 1262.109375 778.089844 C 1324.179688 778.089844 1383.457031 771.554688 1440 759.226562 Z M 1440 744.363281 " fill-opacity="1" fill-rule="nonzero"/><path fill="#9ad9ff" d="M 1440 737.988281 C 1439.210938 738.109375 1438.492188 738.210938 1437.695312 738.332031 C 1278.773438 762.742188 1107.289062 719.59375 978.945312 622.777344 C 977.753906 621.878906 976.433594 620.828125 975.207031 619.890625 C 1037.726562 666.074219 1111.453125 700.90625 1189.015625 720.609375 C 1239.460938 733.429688 1291.535156 739.902344 1342.96875 739.890625 C 1372.695312 739.890625 1402.210938 737.734375 1431.039062 733.382812 C 1434.117188 732.917969 1437.03125 732.5 1440 732.066406 L 1440 730.839844 C 1436.972656 731.28125 1434.003906 731.710938 1430.859375 732.1875 C 1271.414062 756.175781 1099.554688 712.503906 970.953125 615.328125 C 970.03125 614.632812 969.007812 613.8125 968.0625 613.089844 C 1073.46875 690.765625 1206.640625 733.488281 1338.164062 733.488281 C 1367.023438 733.488281 1395.824219 731.421875 1424.203125 727.25 C 1429.734375 726.433594 1434.792969 725.726562 1440 724.988281 L 1440 723.742188 C 1434.734375 724.488281 1429.613281 725.199219 1424.023438 726.023438 C 1264.261719 749.640625 1091.894531 705.441406 962.96875 607.878906 C 962.078125 607.210938 961.109375 606.4375 960.207031 605.746094 C 1066.273438 684 1200.429688 727.101562 1332.796875 727.101562 C 1361.160156 727.101562 1389.464844 725.125 1417.367188 721.101562 C 1425.214844 719.960938 1432.765625 718.898438 1440 717.898438 L 1440 716.660156 C 1432.710938 717.667969 1425.105469 718.734375 1417.183594 719.875 C 1257.082031 743.042969 1084.203125 698.367188 954.980469 600.433594 C 954.148438 599.800781 953.242188 599.082031 952.398438 598.433594 C 1059.128906 677.246094 1194.234375 720.714844 1327.453125 720.714844 C 1355.328125 720.714844 1383.105469 718.816406 1410.527344 714.957031 C 1420.9375 713.484375 1430.679688 712.152344 1440 710.882812 L 1440 709.632812 C 1430.628906 710.914062 1420.832031 712.261719 1410.351562 713.730469 C 1249.707031 736.464844 1076.46875 691.265625 946.988281 592.984375 C 946.125 592.328125 945.128906 591.5 944.25 590.824219 C 1006.523438 636.898438 1080.601562 672.191406 1159.152344 692.835938 C 1213.203125 707.042969 1268.765625 714.238281 1323.175781 714.238281 C 1350.417969 714.238281 1377.375 712.429688 1403.707031 708.808594 C 1412.277344 707.613281 1420.492188 706.507812 1428.359375 705.441406 C 1432.425781 704.890625 1436.109375 704.382812 1440 703.851562 L 1440 702.617188 C 1436.058594 703.15625 1432.320312 703.671875 1428.195312 704.230469 C 1420.328125 705.292969 1412.113281 706.398438 1403.527344 707.582031 C 1242.390625 729.824219 1068.765625 684.1875 939.015625 585.535156 C 938.226562 584.933594 937.328125 584.1875 936.527344 583.574219 C 998.746094 629.617188 1072.898438 665.003906 1151.6875 685.894531 C 1206.652344 700.460938 1263.082031 707.835938 1318.226562 707.835938 C 1344.839844 707.835938 1371.167969 706.117188 1396.855469 702.660156 L 1411.378906 700.703125 C 1421.464844 699.351562 1430.929688 698.078125 1440 696.828125 L 1440 695.589844 C 1430.863281 696.847656 1421.34375 698.132812 1411.214844 699.492188 L 1396.703125 701.433594 C 1235.210938 723.210938 1061.046875 677.113281 931.027344 578.085938 C 930.277344 577.515625 929.433594 576.8125 928.675781 576.230469 C 990.851562 622.289062 1065.125 657.820312 1144.222656 678.953125 C 1200.085938 693.882812 1257.414062 701.449219 1313.273438 701.449219 C 1339.273438 701.449219 1364.960938 699.804688 1390.019531 696.515625 L 1393.054688 696.109375 C 1410.042969 693.875 1425.464844 691.824219 1440 689.773438 L 1440 688.535156 C 1425.421875 690.597656 1409.945312 692.65625 1392.890625 694.898438 L 1389.867188 695.289062 C 1230.257812 716.347656 1051.394531 668.53125 923.039062 570.636719 C 922.515625 570.238281 921.925781 569.75 921.398438 569.34375 C 1029.796875 649.488281 1172.183594 695.046875 1308.769531 695.046875 C 1333.84375 695.046875 1358.75 693.507812 1383.179688 690.382812 C 1403.917969 687.722656 1422.710938 685.25 1440 682.714844 L 1440 681.410156 C 1422.648438 683.992188 1403.792969 686.492188 1383.03125 689.15625 C 1222.957031 709.734375 1043.648438 661.425781 915.050781 563.191406 C 914.558594 562.8125 914.023438 562.371094 913.53125 561.992188 C 1022.601562 642.722656 1166.042969 688.691406 1303.457031 688.691406 C 1328.023438 688.691406 1352.40625 687.226562 1376.359375 684.234375 C 1399.714844 681.3125 1420.632812 678.523438 1440 675.546875 L 1440 674.292969 C 1420.59375 677.28125 1399.632812 680.078125 1376.207031 683.007812 C 1220.738281 702.476562 1047.433594 657.21875 919.582031 564.800781 C 1027.433594 639.859375 1165.695312 682.335938 1298.164062 682.335938 C 1322.21875 682.335938 1346.078125 680.945312 1369.523438 678.085938 C 1394.550781 675.03125 1417.925781 671.964844 1440 668.390625 L 1440 667.042969 C 1418.613281 670.539062 1395.417969 673.683594 1369.371094 676.859375 C 1208.359375 696.46875 1028.179688 647.234375 899.074219 548.308594 C 898.316406 547.730469 897.511719 547.0625 896.753906 546.476562 C 958.875 592.78125 1033.863281 628.976562 1114.378906 651.179688 C 1173.933594 667.601562 1234.777344 675.949219 1293.527344 675.949219 C 1316.984375 675.949219 1340.113281 674.617188 1362.6875 671.941406 C 1391.691406 668.496094 1417.019531 665.046875 1440 661.121094 L 1440 659.96875 C 1416.664062 663.921875 1391.167969 667.316406 1362.539062 670.714844 C 1201.101562 689.886719 1020.460938 640.128906 891.085938 540.859375 C 890.320312 540.273438 889.511719 539.605469 888.746094 539.011719 C 950.859375 585.394531 1026.035156 621.773438 1106.929688 644.238281 C 1167.414062 661.035156 1229.121094 669.59375 1288.558594 669.59375 C 1311.386719 669.59375 1333.886719 668.335938 1355.847656 665.792969 C 1386.691406 662.226562 1414.46875 658.4375 1440 653.773438 L 1440 652.675781 C 1414.523438 657.261719 1386.785156 660.976562 1355.699219 664.566406 C 1193.96875 683.335938 1012.753906 633.039062 883.109375 533.410156 C 882.4375 532.894531 881.734375 532.3125 881.054688 531.785156 C 943.097656 578.117188 1018.339844 614.59375 1099.449219 637.300781 C 1160.875 654.484375 1223.46875 663.234375 1283.621094 663.234375 C 1305.808594 663.234375 1327.679688 662.039062 1349.027344 659.644531 C 1382.769531 655.851562 1412.671875 651.582031 1440 646.242188 L 1440 644.984375 C 1412.640625 650.339844 1382.691406 654.621094 1348.878906 658.417969 C 1189.074219 676.410156 1003 624.40625 875.121094 525.960938 C 874.492188 525.476562 873.835938 524.933594 873.203125 524.445312 C 935.214844 570.792969 1010.570312 607.394531 1091.996094 630.34375 C 1154.351562 647.921875 1217.8125 656.894531 1278.65625 656.894531 C 1300.210938 656.894531 1321.457031 655.757812 1342.175781 653.5 C 1380.132812 649.351562 1411.949219 644.527344 1440 638.710938 L 1440 637.5 C 1410.25 643.710938 1378.035156 648.34375 1342.054688 652.273438 C 1187.003906 669.238281 1007.738281 620.566406 880.203125 528.03125 C 990.796875 605.269531 1137.707031 650.535156 1274.183594 650.523438 C 1294.855469 650.523438 1315.308594 649.488281 1335.339844 647.367188 C 1375.660156 643.085938 1409.765625 637.753906 1440 631.066406 L 1440 630.125 C 1408.089844 637.140625 1373.566406 642.070312 1335.21875 646.140625 C 1179.789062 662.675781 1000.195312 613.535156 872.441406 520.765625 C 983.710938 598.546875 1131.652344 644.210938 1268.902344 644.210938 C 1289.035156 644.210938 1308.980469 643.222656 1328.503906 641.21875 C 1371.464844 636.796875 1407.777344 631.054688 1440 623.492188 L 1440 622.203125 C 1405.5 630.355469 1368.707031 635.84375 1328.382812 639.992188 C 1308.875 642.011719 1288.992188 642.984375 1268.886719 642.984375 C 1122.636719 642.984375 964.207031 591.039062 851.15625 503.617188 C 850.910156 503.425781 850.664062 503.210938 850.417969 503.019531 C 963.730469 587.628906 1119.601562 637.898438 1263.664062 637.898438 C 1283.261719 637.898438 1302.652344 636.972656 1321.679688 635.070312 C 1366.722656 630.578125 1405.394531 624.226562 1440 615.597656 L 1440 614.285156 C 1404.570312 623.132812 1365.546875 629.460938 1321.5625 633.84375 C 1159.8125 650.042969 971.988281 595.929688 843.164062 496.167969 C 842.816406 495.898438 842.46875 495.59375 842.121094 495.320312 C 903.90625 541.601562 979.667969 578.664062 1062.152344 602.570312 C 1128.289062 621.761719 1195.28125 631.570312 1258.863281 631.570312 C 1277.863281 631.558594 1296.578125 630.691406 1314.84375 628.925781 C 1361.804688 624.386719 1402.886719 617.3125 1440 607.519531 L 1440 606.054688 C 1402.171875 616.140625 1360.890625 623.238281 1314.722656 627.699219 C 1152.480469 643.386719 964.222656 588.824219 835.179688 488.71875 C 834.8125 488.4375 834.457031 488.125 834.09375 487.839844 C 895.875 534.191406 971.820312 571.445312 1054.6875 595.628906 C 1121.78125 615.207031 1189.65625 625.246094 1253.910156 625.246094 C 1272.265625 625.246094 1290.339844 624.421875 1308.007812 622.777344 C 1356.445312 618.25 1399.972656 610.554688 1440 599.40625 L 1440 598.128906 C 1399.949219 609.3125 1356.382812 617.019531 1307.886719 621.550781 C 1145.179688 636.761719 956.457031 581.707031 827.203125 481.269531 C 826.988281 481.105469 826.785156 480.921875 826.566406 480.753906 C 888.257812 527 964.199219 564.308594 1047.222656 588.691406 C 1115.246094 608.6875 1184.003906 618.933594 1248.898438 618.933594 C 1266.640625 618.933594 1284.101562 618.171875 1301.167969 616.628906 C 1352.027344 612.035156 1397.960938 603.65625 1440 591.390625 L 1440 590.175781 C 1397.675781 602.527344 1351.773438 610.828125 1301.050781 615.402344 C 1140.304688 629.941406 946.691406 573.03125 819.214844 473.839844 C 818.964844 473.644531 818.734375 473.4375 818.484375 473.246094 C 880.179688 519.574219 956.351562 557.066406 1039.757812 581.75 C 1108.753906 602.152344 1178.40625 612.621094 1243.960938 612.621094 C 1261.0625 612.621094 1277.890625 611.917969 1294.347656 610.480469 C 1347.324219 605.859375 1395.507812 596.839844 1440 583.234375 L 1440 582.175781 C 1395.359375 595.769531 1347.074219 604.652344 1294.230469 609.257812 C 1278.042969 610.675781 1261.539062 611.367188 1244.800781 611.367188 C 1094.71875 611.367188 926.089844 555.90625 811.226562 466.386719 C 811.132812 466.316406 811.042969 466.238281 810.949219 466.164062 C 926.386719 552.75 1091.945312 606.308594 1239.578125 606.308594 C 1255.796875 606.308594 1271.816406 605.667969 1287.496094 604.351562 C 1342.558594 599.71875 1392.941406 589.914062 1440 574.859375 L 1440 573.363281 C 1392.582031 588.597656 1341.855469 598.546875 1287.40625 603.125 C 1131.636719 616.1875 945.628906 562.824219 817.863281 469.714844 C 933.039062 550.5 1092.148438 600.027344 1234.328125 600.027344 C 1250.007812 600.027344 1265.488281 599.429688 1280.660156 598.203125 C 1336.984375 593.648438 1390.089844 582.878906 1440 566.265625 L 1440 564.96875 C 1390.070312 581.625 1336.933594 592.417969 1280.570312 596.976562 C 1124.519531 609.628906 938.179688 555.808594 810.171875 462.5 C 925.980469 543.796875 1086.15625 593.761719 1229.121094 593.746094 C 1244.230469 593.746094 1259.175781 593.191406 1273.820312 592.054688 C 1331.945312 587.539062 1387.523438 575.929688 1440 557.839844 L 1440 556.542969 C 1387.503906 574.679688 1331.894531 586.308594 1273.734375 590.828125 C 1259.085938 591.96875 1244.203125 592.535156 1229.105469 592.535156 C 1076.410156 592.535156 904.007812 535.445312 787.261719 444.042969 C 787.128906 443.941406 787.015625 443.839844 786.882812 443.738281 C 848.445312 490.175781 925.199219 528.265625 1009.910156 553.976562 C 1082.769531 576.082031 1155.921875 587.480469 1224.035156 587.480469 C 1238.605469 587.480469 1252.953125 586.957031 1267 585.90625 C 1326.792969 581.441406 1384.890625 568.992188 1440 549.363281 L 1440 548.070312 C 1384.875 567.746094 1326.742188 580.214844 1266.910156 584.683594 C 1252.789062 585.746094 1238.425781 586.253906 1223.886719 586.253906 C 1070.335938 586.253906 896.648438 528.625 779.285156 436.59375 C 779.261719 436.578125 779.246094 436.558594 779.21875 436.542969 C 840.707031 482.9375 917.523438 521.097656 1002.445312 547.035156 C 1076.273438 569.574219 1150.3125 581.195312 1219.054688 581.195312 C 1232.980469 581.195312 1246.714844 580.71875 1260.164062 579.761719 C 1321.519531 575.375 1382.183594 562.023438 1440 540.789062 L 1440 539.480469 C 1382.164062 560.761719 1321.464844 574.148438 1260.074219 578.535156 C 1096.515625 590.261719 899.96875 530.210938 771.296875 429.148438 C 727.300781 394.582031 693.28125 362.738281 660.382812 331.941406 C 625.839844 299.605469 590.117188 266.179688 543.277344 230.132812 C 456.101562 163.019531 328.808594 149.84375 164.980469 190.957031 C 109.398438 204.90625 53.453125 224.261719 0 245.929688 L 0 247.253906 C 53.546875 225.53125 109.597656 206.113281 165.28125 192.140625 C 319.1875 153.539062 440.695312 162.925781 526.875 219.964844 C 441.851562 166.703125 322.886719 158.878906 172.492188 197.015625 C 118.847656 210.628906 61.121094 230.308594 0 255.390625 L 0 256.714844 C 61.238281 231.566406 119.066406 211.84375 172.789062 198.214844 C 326.242188 159.308594 446.917969 168.203125 531.976562 224.558594 C 448.023438 171.945312 329.867188 164.613281 180.015625 203.089844 C 124.027344 217.445312 64.222656 237.96875 0 264.652344 L 0 265.976562 C 64.34375 239.214844 124.246094 218.652344 180.3125 204.269531 C 333.265625 165.054688 453.117188 173.453125 537.082031 229.15625 C 496.410156 203.671875 447.398438 188.816406 390.789062 185.15625 C 332.011719 181.328125 263.613281 189.417969 187.523438 209.160156 C 130.066406 224.0625 67.851562 245.609375 0 274.132812 L 0 275.703125 C 249.078125 171.191406 427.601562 157.53125 541.882812 233.570312 C 501.859375 208.570312 453.5625 194.042969 397.714844 190.601562 C 339.371094 187.085938 271.136719 195.265625 195.050781 215.21875 C 129.660156 232.359375 63.121094 256.78125 0 283.53125 L 0 284.855469 C 63.210938 258.050781 129.863281 233.566406 195.351562 216.402344 C 347.382812 176.578125 465.714844 184.007812 547.453125 238.449219 C 507.929688 213.632812 460.085938 199.304688 404.640625 196.046875 C 346.640625 192.726562 278.648438 201.128906 202.574219 221.277344 C 135.507812 239.042969 66.097656 264.859375 0 293.117188 L 0 294.449219 C 66.191406 266.136719 135.710938 240.257812 202.875 222.472656 C 354.476562 182.320312 471.964844 189.273438 552.585938 243.0625 C 513.652344 218.589844 466.410156 204.539062 411.550781 201.488281 C 353.882812 198.226562 286.15625 206.992188 210.085938 227.347656 C 140.878906 245.867188 69.242188 272.75 0 302.59375 L 0 303.925781 C 69.34375 274.019531 141.09375 247.074219 210.398438 228.53125 C 363.941406 187.441406 477.886719 193.714844 557.960938 247.820312 C 519.5625 223.617188 472.835938 209.796875 418.464844 206.933594 C 361.300781 203.957031 293.695312 212.84375 217.59375 233.40625 C 146.878906 252.527344 72.378906 280.820312 0 312.226562 L 0 313.5625 C 72.484375 282.09375 147.105469 253.738281 217.925781 234.589844 C 363.84375 195.140625 473.460938 198.695312 551.773438 245.40625 C 474.738281 202.417969 367.378906 200.484375 225.222656 239.34375 C 152.488281 259.226562 75.8125 288.515625 0 321.640625 L 0 322.980469 C 75.921875 289.785156 152.714844 260.433594 225.554688 240.527344 C 371.613281 200.59375 480.722656 203.898438 557.917969 250.574219 C 481.847656 207.765625 374.9375 206.160156 232.75 245.402344 C 157.964844 266.046875 79.300781 296.378906 0 331.238281 L 0 332.582031 C 79.421875 297.648438 158.207031 267.253906 233.078125 246.585938 C 378.703125 206.378906 487.085938 209.25 563.199219 255.292969 C 488.136719 213.132812 381.976562 211.953125 240.273438 251.460938 C 164.257812 272.652344 82.765625 304.417969 0 340.949219 L 0 342.292969 C 82.890625 305.691406 164.5 273.855469 240.605469 252.640625 C 385.910156 212.121094 493.621094 214.582031 568.679688 260.105469 C 494.660156 218.5 389.164062 217.71875 247.800781 257.515625 C 168.875 279.738281 84.140625 313.097656 0 350.367188 L 0 351.707031 C 84.257812 314.363281 169.113281 280.9375 248.128906 258.699219 C 393.058594 217.886719 500.070312 219.929688 574.070312 264.878906 C 501.078125 223.867188 396.292969 223.496094 255.324219 263.574219 C 175.269531 286.332031 87.585938 321.136719 0 360.039062 L 0 361.488281 C 240.066406 254.886719 451.867188 191.902344 579.378906 269.621094 C 507.398438 229.242188 403.324219 229.328125 262.832031 269.648438 C 180.878906 293.164062 91.359375 328.835938 0 369.550781 L 0 370.894531 C 91.488281 330.101562 181.132812 294.371094 263.179688 270.828125 C 406.4375 229.71875 511.617188 230.613281 583.445312 273.535156 C 551.257812 255.683594 512.847656 246.253906 467.054688 244.878906 C 463.195312 244.757812 459.289062 244.699219 455.328125 244.699219 C 402.933594 244.699219 342.257812 254.886719 270.359375 275.703125 C 186.582031 299.96875 95.320312 336.644531 0 379.25 L 0 380.589844 C 95.457031 337.90625 186.839844 301.171875 270.703125 276.886719 C 413.609375 235.496094 518.054688 235.972656 588.820312 278.292969 C 557.148438 260.734375 519.25 251.53125 473.980469 250.339844 C 470.613281 250.246094 467.21875 250.203125 463.777344 250.203125 C 411.433594 250.203125 350.46875 260.570312 277.871094 281.777344 C 193.199219 306.527344 99.136719 344.460938 0 388.816406 L 0 390.164062 C 99.277344 345.734375 193.460938 307.730469 278.210938 282.960938 C 420.753906 241.277344 524.488281 241.335938 594.195312 283.054688 C 563.03125 265.796875 525.644531 256.808594 480.894531 255.78125 C 478.019531 255.722656 475.132812 255.675781 472.199219 255.675781 C 419.914062 255.675781 358.667969 266.238281 285.394531 287.847656 C 199.039062 313.3125 103.53125 352.015625 0 398.425781 L 0 399.765625 C 103.683594 353.273438 199.308594 314.515625 285.738281 289.03125 C 430.464844 246.332031 531.5 245.964844 600.304688 288.171875 C 569.519531 270.953125 532.394531 262.09375 487.820312 261.242188 C 485.441406 261.183594 483.046875 261.167969 480.621094 261.167969 C 428.410156 261.167969 366.898438 271.90625 292.902344 293.921875 C 204.917969 320.109375 108.335938 359.320312 0 407.957031 L 0 409.292969 C 108.496094 360.570312 205.195312 321.308594 293.261719 295.101562 C 438.136719 251.992188 538.648438 251.347656 606.375 293.367188 C 539.472656 255.507812 440.945312 257.828125 300.414062 299.996094 C 211.847656 326.585938 112.488281 367.140625 0 417.621094 L 0 418.96875 C 112.652344 368.40625 212.132812 327.785156 300.773438 301.175781 C 445.300781 257.777344 545.164062 256.734375 611.816406 298.179688 C 545.9375 260.925781 448.074219 263.644531 307.925781 306.066406 C 215.921875 333.933594 109.9375 377.785156 0 427.105469 L 0 428.441406 C 110.078125 379.046875 216.199219 335.128906 308.28125 307.25 C 452.492188 263.570312 551.675781 262.121094 617.234375 302.96875 C 552.386719 266.328125 455.179688 269.441406 315.433594 312.152344 C 221.929688 340.703125 114.8125 385.132812 0 436.671875 L 0 438.019531 C 114.960938 386.40625 222.210938 341.902344 315.792969 313.320312 C 459.671875 269.375 558.21875 267.488281 622.710938 307.796875 C 558.882812 271.753906 462.304688 275.292969 322.945312 318.226562 C 228.035156 347.457031 120.070312 392.367188 0 446.273438 L 0 447.613281 C 120.230469 393.625 228.332031 348.648438 323.304688 319.394531 C 467.253906 275.082031 565.230469 272.898438 628.605469 312.902344 C 565.964844 277.390625 470.390625 281.117188 331.84375 323.941406 C 235.71875 353.667969 124.460938 400.09375 0 455.894531 L 0 457.234375 C 124.628906 401.34375 236.015625 354.855469 332.203125 325.121094 C 474.046875 281.246094 570.578125 278.539062 632.785156 316.949219 C 516.042969 252.148438 295.9375 332.9375 0 465.464844 L 0 466.8125 C 300.945312 332.019531 523.300781 250.789062 638.011719 321.640625 C 611.335938 306.824219 578.589844 299.515625 538.726562 299.515625 C 538.699219 299.515625 538.652344 299.515625 538.625 299.515625 C 488.925781 299.53125 427.980469 310.925781 352.324219 334.363281 C 252.605469 365.25 133.996094 415.050781 0 475.011719 L 0 476.351562 C 134.160156 416.316406 252.90625 366.441406 352.699219 335.53125 C 428.234375 312.140625 489.046875 300.757812 538.625 300.742188 C 538.652344 300.742188 538.699219 300.742188 538.730469 300.742188 C 581.644531 300.742188 616.183594 309.339844 643.777344 326.597656 C 617.832031 312.101562 585.890625 304.945312 546.941406 304.945312 C 546.792969 304.945312 546.628906 304.945312 546.464844 304.945312 C 497.585938 305.019531 437.402344 316.355469 362.46875 339.585938 C 261.070312 371.039062 138.726562 422.570312 0 484.566406 L 0 485.914062 C 138.894531 423.832031 261.371094 372.234375 362.828125 340.765625 C 437.644531 317.554688 497.707031 306.246094 546.464844 306.171875 C 546.628906 306.171875 546.777344 306.171875 546.941406 306.171875 C 588.777344 306.171875 622.402344 314.539062 649.195312 331.363281 C 537.136719 268.792969 316.902344 352.574219 0 494.097656 L 0 495.445312 C 342.082031 342.660156 571.390625 257.136719 673.175781 350.089844 C 675.917969 352.609375 678.628906 355.09375 681.542969 357.785156 C 682.742188 358.894531 683.847656 359.914062 685.078125 361.058594 C 685.214844 361.183594 685.363281 361.320312 685.5 361.449219 C 697.789062 372.855469 711.761719 385.917969 727.332031 400.472656 C 806.917969 474.882812 915.902344 576.785156 978.195312 623.765625 C 1041.777344 671.714844 1117.25 707.597656 1196.464844 727.550781 C 1246.027344 740.039062 1297.25 746.335938 1347.921875 746.335938 C 1378.257812 746.335938 1408.402344 744.078125 1437.875 739.53125 C 1438.613281 739.417969 1439.273438 739.324219 1440 739.210938 Z M 795.25 451.492188 L 795.246094 451.492188 C 795.253906 451.496094 795.257812 451.5 795.265625 451.503906 C 795.261719 451.5 795.253906 451.496094 795.25 451.492188 Z M 803.238281 458.941406 C 803.1875 458.902344 803.144531 458.863281 803.09375 458.824219 C 803.777344 459.335938 804.472656 459.84375 805.160156 460.355469 C 804.535156 459.875 803.859375 459.425781 803.238281 458.941406 Z M 858.019531 510.175781 C 861.769531 512.972656 865.503906 515.785156 869.347656 518.507812 C 865.960938 516.011719 862.453125 513.621094 859.144531 511.066406 C 858.773438 510.777344 858.390625 510.460938 858.019531 510.175781 Z M 865.867188 517.511719 C 869.96875 520.570312 874.042969 523.644531 878.253906 526.609375 C 874.554688 523.902344 870.742188 521.292969 867.132812 518.515625 C 866.714844 518.191406 866.285156 517.835938 865.867188 517.511719 Z M 905.691406 554.660156 C 909.964844 557.828125 914.214844 561.023438 918.59375 564.085938 C 914.753906 561.296875 910.816406 558.613281 907.058594 555.742188 C 906.617188 555.402344 906.136719 555.003906 905.691406 554.660156 Z M 905.691406 554.660156 " fill-opacity="1" fill-rule="nonzero"/><g clip-path="url(#a939b70119)"><path fill="#5db3e7" d="M 911.773438 287.640625 C 815.3125 264.246094 717.050781 261.226562 611.375 278.457031 C 596.59375 280.804688 581.605469 283.542969 566.839844 286.609375 C 511.789062 298.105469 478.003906 309.03125 446.429688 320.308594 C 477.480469 308.554688 512.242188 296.480469 567.824219 284.097656 C 938.941406 201.371094 1159.5 371.699219 1414.835938 568.949219 C 1423.148438 575.367188 1431.597656 581.871094 1440 588.351562 L 1440 586.800781 C 1431.851562 580.519531 1423.648438 574.203125 1415.585938 567.976562 C 1287.363281 468.933594 1166.261719 375.390625 1033.292969 318.914062 C 885.996094 256.363281 738.027344 244.925781 567.554688 282.898438 C 502.554688 297.394531 465.945312 311.453125 430.550781 325.046875 C 402.753906 335.726562 374.003906 346.78125 331.394531 358.191406 C 328.65625 358.933594 325.851562 359.457031 323.066406 360.039062 C 320.859375 360.519531 318.652344 360.964844 316.433594 361.347656 C 250.101562 372.167969 171.65625 339.96875 83.132812 265.460938 C 52.707031 239.847656 24.625 212.082031 0 185.570312 L 0 187.363281 C 24.441406 213.617188 52.242188 241.050781 82.339844 266.386719 C 144.972656 319.09375 202.527344 350.566406 254.476562 360.828125 C 167.089844 345.320312 75.257812 273.851562 0 199.085938 L 0 200.808594 C 73.457031 273.644531 162.570312 343.203125 248.054688 360.902344 C 161.0625 344.675781 70.574219 276.894531 0 212.519531 L 0 214.09375 C 74.289062 281.710938 170.410156 352.875 261.53125 364.152344 C 171.292969 354.921875 75.375 288.863281 0 225.84375 L 0 227.367188 C 73.191406 288.445312 165.5625 352.195312 253.53125 364.339844 C 166.332031 354.054688 73.855469 294.957031 0 238.785156 L 0 240.316406 C 73.886719 296.421875 166.28125 355.277344 253.515625 365.554688 C 167.101562 357.269531 74.832031 303.285156 0 251.757812 L 0 253.230469 C 74.863281 304.71875 167.054688 358.5 253.558594 366.765625 C 167.925781 360.542969 76.234375 311.699219 0 264.492188 L 0 265.921875 C 72.867188 310.957031 159.78125 357.335938 242.125 366.785156 C 160.183594 359.105469 72.539062 316.941406 0 277.082031 L 0 278.488281 C 40.066406 300.542969 84.359375 323.183594 129.601562 340.316406 C 176.367188 358.027344 218.003906 367.519531 255.488281 369.1875 C 170.722656 367.25 78.378906 327.65625 0 289.609375 L 0 290.945312 C 75.199219 327.355469 163.179688 364.980469 245.09375 369.734375 C 163.546875 366.785156 74.898438 333.40625 0 301.941406 L 0 303.273438 C 77.261719 335.742188 169.089844 370.230469 252.785156 371.246094 C 170.277344 372.246094 79.667969 342.734375 0 314.167969 L 0 315.472656 C 76.496094 342.886719 163.015625 371.085938 242.867188 372.417969 C 163.3125 372.894531 76.28125 348.960938 0 326.257812 L 0 327.539062 C 76.429688 350.28125 163.628906 374.253906 243.355469 373.664062 C 163.910156 376.082031 76.121094 356.382812 0 338.246094 L 0 339.507812 C 78.359375 358.179688 169.050781 378.449219 250.378906 374.578125 C 170.59375 380.320312 81.496094 364.84375 0 350.125 L 0 351.375 C 78.125 365.488281 163.265625 380.359375 240.542969 376.496094 C 163.847656 382.175781 78.542969 371.640625 0.914062 362.003906 C 0.605469 361.96875 0.304688 361.929688 0 361.890625 L 0 363.121094 C 0.253906 363.152344 0.507812 363.183594 0.761719 363.21875 C 77.15625 372.699219 160.9375 383.03125 236.726562 377.964844 C 163.800781 384.691406 82.847656 379.277344 8.945312 374.167969 C 5.941406 373.957031 2.984375 373.757812 0 373.550781 L 0 374.769531 C 2.960938 374.972656 5.890625 375.171875 8.871094 375.378906 C 84.976562 380.65625 168.621094 386.394531 243.25 378.710938 C 172.949219 387.726562 94.355469 386.550781 17.636719 385.367188 C 11.714844 385.277344 5.855469 385.191406 0 385.105469 L 0 386.324219 C 5.847656 386.410156 11.695312 386.5 17.609375 386.59375 C 93.128906 387.726562 170.394531 388.824219 239.882812 380.285156 C 173.609375 390.082031 99.679688 392.894531 27.40625 395.523438 C 18.191406 395.859375 9.0625 396.199219 0 396.546875 L 0 397.769531 C 9.078125 397.421875 18.21875 397.085938 27.453125 396.75 C 99.5 394.121094 173.179688 391.308594 239.332031 381.585938 C 176.808594 392.347656 107.082031 398.53125 38.851562 404.480469 C 25.738281 405.625 12.816406 406.765625 0 407.917969 L 0 409.140625 C 12.851562 407.984375 25.804688 406.839844 38.957031 405.695312 C 106.855469 399.777344 176.226562 393.617188 238.546875 382.953125 C 180.71875 394.316406 116.429688 403.179688 53.46875 411.78125 C 35.714844 414.203125 17.824219 416.65625 0 419.167969 L 0 420.402344 C 17.878906 417.882812 35.824219 415.425781 53.632812 412.992188 C 116.925781 404.351562 181.5625 395.441406 239.644531 383.988281 C 188.792969 395.308594 132.550781 405.730469 73.992188 416.523438 C 49.417969 421.054688 24.628906 425.648438 0 430.347656 L 0 431.601562 C 24.703125 426.890625 49.570312 422.28125 74.214844 417.734375 C 131.367188 407.191406 186.332031 397.015625 236.230469 386.003906 C 196.453125 395.808594 153.257812 405.765625 108.503906 416.074219 C 72.472656 424.375 35.984375 432.785156 0 441.40625 L 0 442.667969 C 36.074219 434.023438 72.660156 425.59375 108.789062 417.269531 C 152.769531 407.140625 195.222656 397.347656 234.429688 387.699219 C 220.113281 391.601562 205.519531 395.570312 190.472656 399.652344 C 129.40625 416.222656 64.203125 433.9375 0 452.402344 L 0 453.679688 C 64.308594 435.179688 129.625 417.433594 190.785156 400.835938 C 205.871094 396.738281 220.503906 392.761719 234.855469 388.851562 C 165.414062 409.632812 82.742188 435.667969 0 463.359375 L 0 464.636719 C 81.625 437.316406 163.203125 411.597656 232.082031 390.941406 C 159.707031 414.546875 77.085938 444.757812 0 474.152344 L 0 475.460938 C 76.847656 446.15625 159.222656 416.023438 231.472656 392.421875 C 162.71875 416.777344 81.761719 450.050781 0 484.941406 L 0 486.269531 C 80.472656 451.929688 160.167969 419.148438 228.238281 394.878906 C 160.671875 420.851562 81.097656 457.351562 0 495.601562 L 0 496.945312 C 144.539062 428.757812 284.269531 366.101562 359.714844 358.640625 C 435.414062 351.132812 466.859375 359.371094 514.464844 371.847656 C 535.929688 377.457031 560.257812 383.828125 593.421875 390.125 C 689.046875 408.296875 786.976562 445.164062 876.648438 496.753906 C 913.734375 518.109375 1076.007812 603.691406 1232.9375 686.449219 C 1305.136719 724.523438 1378.316406 763.113281 1440 795.8125 L 1440 794.433594 C 1378.433594 761.792969 1305.488281 723.316406 1233.519531 685.355469 C 1076.589844 602.601562 914.316406 517.03125 877.246094 495.6875 C 787.46875 444.042969 689.40625 407.113281 593.660156 388.925781 C 560.523438 382.632812 536.230469 376.273438 514.777344 370.652344 C 485.242188 362.921875 461.890625 356.824219 430.394531 355.070312 C 462.007812 356.382812 485.625 361.964844 515.539062 369.035156 C 526.011719 371.519531 536.84375 374.074219 549.246094 376.769531 C 564.730469 380.164062 579.417969 383.078125 594.15625 385.699219 C 686.699219 401.804688 784.867188 437.328125 878.039062 488.449219 C 906.3125 503.960938 994.429688 550.683594 1096.472656 604.796875 C 1205.613281 662.6875 1338.464844 733.136719 1440 787.636719 L 1440 786.230469 C 1340.816406 733 1210.867188 664.085938 1097.039062 603.722656 C 995.011719 549.609375 906.898438 502.882812 878.636719 487.375 C 785.328125 436.191406 687.042969 400.625 594.363281 384.5 C 579.644531 381.867188 564.96875 378.953125 549.515625 375.570312 C 537.128906 372.878906 526.296875 370.320312 515.824219 367.839844 C 481.359375 359.703125 455.171875 353.574219 415.648438 353.59375 C 454.851562 352.964844 480.824219 358.46875 517.019531 366.207031 C 527.285156 368.40625 537.90625 370.679688 549.992188 373.058594 C 564.25 375.886719 578.417969 378.625 594.875 381.285156 C 685.90625 396.03125 784.300781 430.207031 879.445312 480.132812 C 943.371094 513.6875 1247.703125 674.90625 1440 779.441406 L 1440 778.050781 C 1247.648438 673.496094 943.871094 512.578125 880.011719 479.058594 C 784.761719 429.070312 686.234375 394.851562 595.082031 380.089844 C 578.640625 377.425781 564.488281 374.675781 550.234375 371.863281 C 538.144531 369.46875 527.539062 367.210938 517.277344 365.011719 C 484.273438 357.953125 459.726562 352.765625 425.988281 352.347656 C 460.054688 352.273438 485.015625 356.988281 518.667969 363.410156 C 528.660156 365.3125 539.011719 367.285156 550.742188 369.347656 L 554.210938 369.976562 C 566.449219 372.144531 580.304688 374.613281 595.605469 376.886719 C 686.324219 390.289062 782.292969 422.234375 880.851562 471.832031 C 943.753906 503.488281 1247.054688 665.132812 1440 771.332031 L 1440 769.925781 C 1246.996094 663.703125 944.246094 502.355469 881.390625 470.726562 C 782.726562 421.085938 686.640625 389.09375 595.785156 375.660156 C 580.496094 373.402344 566.644531 370.933594 554.421875 368.765625 L 550.949219 368.152344 C 539.238281 366.074219 528.882812 364.097656 518.890625 362.199219 C 485.78125 355.902344 461.109375 351.238281 427.898438 351.132812 C 461.550781 350.738281 486.714844 354.921875 520.566406 360.597656 C 530.230469 362.214844 540.222656 363.890625 551.488281 365.640625 C 554.570312 366.132812 557.714844 366.628906 560.929688 367.136719 C 572.03125 368.914062 583.488281 370.738281 596.339844 372.460938 C 685.921875 384.441406 782.097656 415.074219 882.226562 463.503906 C 952.988281 497.734375 1249.15625 656.707031 1440 763.164062 L 1440 761.753906 C 1249.101562 655.285156 953.460938 496.601562 882.765625 462.394531 C 782.519531 413.921875 686.203125 383.242188 596.488281 371.234375 C 583.667969 369.527344 572.207031 367.703125 561.125 365.9375 C 557.90625 365.417969 554.75 364.921875 551.667969 364.445312 C 540.417969 362.679688 530.425781 361.003906 520.761719 359.386719 C 485.679688 353.503906 459.90625 349.226562 424.390625 349.964844 C 459.953125 348.675781 485.824219 352.417969 522.960938 357.804688 C 532.128906 359.132812 541.628906 360.511719 552.222656 361.960938 C 556.621094 362.542969 561.140625 363.1875 565.804688 363.84375 C 575.664062 365.25 585.867188 366.703125 597.058594 368.046875 C 685.890625 378.683594 782.308594 407.996094 883.632812 455.1875 C 963.875 492.574219 1252.613281 649.207031 1440 755.136719 L 1440 753.722656 C 1252.558594 647.78125 964.316406 491.421875 884.140625 454.078125 C 782.714844 406.832031 686.175781 377.488281 597.207031 366.820312 C 586.03125 365.488281 575.828125 364.039062 565.96875 362.632812 C 561.300781 361.976562 556.785156 361.332031 552.402344 360.734375 C 541.796875 359.300781 532.308594 357.921875 523.140625 356.589844 C 487.9375 351.472656 462.828125 347.863281 430.089844 348.578125 C 463.65625 347.328125 489.484375 350.480469 525.863281 354.976562 C 534.253906 356.007812 543.21875 357.113281 552.96875 358.25 C 558.160156 358.851562 563.503906 359.523438 569.039062 360.210938 C 578.164062 361.363281 587.585938 362.542969 597.792969 363.621094 C 687.476562 373.101562 781.425781 400.339844 885.023438 446.871094 C 964.375 482.519531 1250.707031 638.457031 1440 746.894531 L 1440 745.488281 C 1250.660156 637.035156 964.808594 481.375 885.535156 445.765625 C 781.816406 399.171875 687.730469 371.890625 597.910156 362.394531 C 587.722656 361.316406 578.296875 360.136719 569.1875 359 C 563.652344 358.296875 558.3125 357.640625 553.117188 357.023438 C 543.367188 355.886719 534.40625 354.796875 526.011719 353.75 C 488.050781 349.089844 461.585938 345.859375 425.835938 347.546875 C 462 345.265625 488.820312 347.980469 529.40625 352.105469 C 536.992188 352.882812 545.054688 353.703125 553.71875 354.542969 C 559.703125 355.125 565.835938 355.785156 572.3125 356.5 C 580.660156 357.414062 589.292969 358.355469 598.496094 359.207031 C 688.089844 367.433594 782.265625 393.382812 886.417969 438.570312 C 973.21875 476.214844 1252.449219 629.6875 1440 738.714844 L 1440 737.304688 C 1252.410156 628.269531 973.632812 475.058594 886.894531 437.433594 C 782.636719 392.21875 688.328125 366.222656 598.613281 357.980469 C 589.414062 357.128906 580.78125 356.1875 572.449219 355.277344 C 565.957031 354.574219 559.835938 353.898438 553.835938 353.316406 C 545.175781 352.476562 537.128906 351.65625 529.542969 350.890625 C 491.929688 347.074219 466.117188 344.457031 433.820312 345.890625 C 467.441406 343.859375 494.359375 346 533.867188 349.1875 C 540.359375 349.710938 547.195312 350.265625 554.464844 350.832031 C 560.945312 351.339844 567.585938 351.957031 574.617188 352.613281 C 582.484375 353.359375 590.625 354.109375 599.226562 354.78125 C 688.914062 361.765625 783.3125 386.445312 887.808594 430.238281 C 981.914062 469.6875 1254.652344 621.308594 1440 730.640625 L 1440 729.214844 C 1254.609375 619.882812 982.308594 468.53125 888.285156 429.101562 C 783.671875 385.265625 689.152344 360.554688 599.316406 353.554688 C 590.730469 352.898438 582.605469 352.132812 574.738281 351.402344 C 567.707031 350.742188 561.046875 350.113281 554.554688 349.605469 C 547.285156 349.039062 540.449219 348.484375 533.957031 347.960938 C 492.9375 344.65625 465.480469 342.464844 430 344.902344 C 466.480469 341.800781 494.773438 343.484375 539.417969 346.179688 C 544.457031 346.480469 549.710938 346.792969 555.214844 347.125 C 562.320312 347.542969 569.605469 348.109375 577.324219 348.707031 C 584.582031 349.277344 592.089844 349.859375 599.945312 350.367188 C 690.035156 356.128906 784.65625 379.535156 889.214844 421.921875 C 990.042969 462.820312 1257.066406 613.175781 1440 722.628906 L 1440 721.199219 C 1257.027344 611.742188 990.429688 461.644531 889.664062 420.785156 C 784.988281 378.339844 690.242188 354.914062 600.035156 349.144531 C 592.179688 348.648438 584.671875 348.066406 577.414062 347.496094 C 569.695312 346.882812 562.394531 346.316406 555.273438 345.898438 C 549.785156 345.570312 544.53125 345.253906 539.492188 344.953125 C 494.980469 342.269531 466.695312 340.585938 430.359375 343.644531 C 468.242188 339.835938 497.683594 341.03125 546.851562 343.039062 L 555.945312 343.414062 C 563.636719 343.726562 571.519531 344.222656 579.867188 344.746094 C 586.570312 345.164062 593.496094 345.597656 600.675781 345.957031 C 691.292969 350.472656 786.125 372.59375 890.589844 413.605469 C 994.742188 454.488281 1256.773438 603.328125 1440 714.53125 L 1440 713.101562 C 1256.746094 601.910156 995.128906 453.324219 891.039062 412.46875 C 786.4375 371.414062 691.484375 349.246094 600.738281 344.730469 C 593.558594 344.371094 586.644531 343.9375 579.941406 343.519531 C 571.59375 342.996094 563.695312 342.503906 556.007812 342.1875 L 546.910156 341.8125 C 498.324219 339.84375 468.96875 338.671875 431.800781 342.296875 C 471.113281 337.804688 502.101562 338.492188 556.695312 339.71875 C 564.863281 339.898438 573.242188 340.289062 582.097656 340.707031 C 588.320312 340.992188 594.769531 341.289062 601.410156 341.53125 C 692.714844 344.804688 787.769531 365.671875 891.980469 405.289062 C 999.476562 446.152344 1256.484375 593.5625 1440 706.511719 L 1440 705.070312 C 1256.46875 592.144531 999.84375 444.988281 892.429688 404.15625 C 788.070312 364.472656 692.894531 343.59375 601.441406 340.304688 C 594.8125 340.0625 588.378906 339.765625 582.15625 339.480469 C 573.285156 339.0625 564.910156 338.671875 556.574219 338.496094 C 499 337.195312 467.609375 336.523438 424.910156 341.910156 C 467.363281 335.648438 499.207031 335.003906 557.429688 336.011719 C 565.582031 336.144531 573.898438 336.371094 582.695312 336.625 C 588.992188 336.789062 595.472656 336.96875 602.128906 337.117188 C 694.253906 339.121094 789.519531 358.714844 893.386719 396.972656 C 1006.359375 438.585938 1256.136719 583.421875 1440 698.382812 L 1440 696.9375 C 1256.140625 582.007812 1006.726562 437.425781 893.804688 395.839844 C 789.820312 357.519531 694.417969 337.910156 602.160156 335.890625 C 595.5 335.742188 589.039062 335.5625 582.742188 335.398438 C 573.929688 335.160156 565.613281 334.917969 557.457031 334.785156 C 513.152344 334.027344 484.140625 334.203125 454.136719 337.074219 C 484.835938 333.691406 514.101562 332.902344 558.191406 332.300781 C 564.714844 332.242188 571.445312 332.363281 578.507812 332.511719 C 586.363281 332.675781 594.484375 332.839844 602.878906 332.691406 C 606.617188 332.617188 610.328125 332.585938 614.054688 332.585938 C 723.289062 332.585938 821.132812 362.363281 894.78125 388.65625 C 1015.644531 431.796875 1260.054688 576.195312 1440 690.417969 L 1440 688.972656 C 1260.058594 574.78125 1015.996094 430.625 895.199219 387.492188 C 821.445312 361.183594 723.484375 331.359375 614.050781 331.359375 C 610.328125 331.359375 606.585938 331.390625 602.847656 331.464844 C 594.484375 331.628906 586.390625 331.433594 578.535156 331.285156 C 571.460938 331.121094 564.804688 330.96875 558.160156 331.074219 C 504.226562 331.808594 472.441406 332.832031 433.117188 338.535156 C 472.007812 332.183594 503.503906 330.3125 558.925781 328.59375 C 565.746094 328.367188 572.597656 328.425781 579.839844 328.457031 C 587.542969 328.488281 595.457031 328.53125 603.597656 328.277344 C 610.296875 328.054688 616.941406 327.949219 623.535156 327.949219 C 730.441406 327.949219 824.824219 355.648438 896.171875 380.34375 C 1019.292969 422.925781 1254.769531 562.925781 1440 682.34375 L 1440 680.882812 C 1254.808594 561.527344 1019.632812 421.757812 896.558594 379.175781 C 825.125 354.46875 730.621094 326.722656 623.550781 326.722656 C 616.941406 326.722656 610.265625 326.828125 603.566406 327.050781 C 595.429688 327.304688 587.515625 327.261719 579.855469 327.230469 C 572.554688 327.1875 565.730469 327.171875 558.894531 327.367188 C 505.835938 329.019531 474.664062 330.824219 438 336.53125 C 474.625 330.179688 506.277344 327.464844 559.671875 324.882812 C 569.800781 324.390625 580.0625 324.238281 590.9375 324.074219 C 595.335938 324.015625 599.78125 323.941406 604.3125 323.851562 C 609.402344 323.746094 614.5 323.699219 619.585938 323.699219 C 709.617188 323.699219 800.722656 339.554688 897.5625 372.027344 C 1020.488281 413.238281 1242.777344 545.292969 1440 674.367188 L 1440 673.167969 C 1280.855469 569.136719 1036.304688 417.25 897.949219 370.859375 C 800.976562 338.34375 709.753906 322.476562 619.585938 322.476562 C 614.484375 322.476562 609.386719 322.519531 604.285156 322.625 C 599.765625 322.714844 595.308594 322.789062 590.921875 322.847656 C 580.035156 323.011719 569.753906 323.164062 559.613281 323.65625 C 506.160156 326.238281 474.476562 328.949219 437.808594 335.3125 C 474.363281 328.296875 506.238281 324.714844 560.421875 321.171875 C 571.175781 320.472656 582.050781 320.140625 593.585938 319.796875 C 597.355469 319.675781 601.171875 319.574219 605.03125 319.4375 C 701.210938 316.164062 797.3125 330.671875 898.953125 363.710938 C 1033.484375 407.4375 1259.683594 546.980469 1440 666.597656 L 1440 665.128906 C 1259.730469 545.574219 1033.8125 406.261719 899.339844 362.542969 C 797.566406 329.445312 701.34375 314.980469 605.003906 318.210938 C 601.140625 318.347656 597.328125 318.453125 593.558594 318.570312 C 582.007812 318.914062 571.117188 319.257812 560.328125 319.945312 C 505.59375 323.53125 473.609375 327.148438 436.589844 334.296875 C 472.0625 326.785156 504.695312 322.101562 561.152344 317.480469 C 572.433594 316.550781 583.804688 316.027344 595.847656 315.476562 C 599.121094 315.324219 602.414062 315.175781 605.75 315.011719 C 703.019531 310.316406 799.363281 323.566406 900.34375 355.378906 C 1043.902344 400.613281 1271.601562 544.957031 1440 658.5 L 1440 657.015625 C 1271.613281 543.507812 1044.222656 399.433594 900.703125 354.210938 C 799.570312 322.339844 703.09375 309.179688 605.691406 313.785156 C 602.367188 313.949219 599.0625 314.097656 595.785156 314.246094 C 583.742188 314.800781 572.359375 315.328125 561.0625 316.253906 C 507.660156 320.628906 475.566406 325.042969 442.242188 331.851562 C 475.910156 324.339844 508.574219 319.011719 561.902344 313.769531 C 574.152344 312.558594 586.464844 311.8125 599.480469 311.019531 L 606.480469 310.601562 C 704.738281 304.496094 801.382812 316.433594 901.734375 347.0625 C 1048.6875 391.933594 1261.664062 528.664062 1440 650.726562 L 1440 649.242188 C 1261.746094 527.25 1049.023438 390.757812 902.09375 345.898438 C 801.59375 315.191406 704.875 303.253906 606.394531 309.371094 L 599.40625 309.804688 C 586.375 310.585938 574.0625 311.332031 561.78125 312.542969 C 507.042969 317.929688 474.046875 323.410156 439.421875 331.234375 C 474.292969 322.65625 506.796875 316.46875 562.648438 310.0625 C 575.695312 308.550781 588.726562 307.578125 602.519531 306.53125 L 607.199219 306.1875 C 706.640625 298.589844 803.460938 309.265625 903.125 338.75 C 1055.386719 383.789062 1263.789062 520.425781 1440 642.847656 L 1440 641.359375 C 1263.859375 519.015625 1055.707031 382.617188 903.484375 337.582031 C 803.671875 308.042969 706.714844 297.363281 607.113281 304.960938 L 602.429688 305.320312 C 588.621094 306.351562 575.574219 307.339844 562.5 308.832031 C 508.433594 315.042969 476.230469 321.03125 442.597656 329.183594 C 476.007812 320.453125 508.855469 313.496094 563.367188 306.351562 C 577.625 304.480469 591.761719 303.210938 606.738281 301.863281 L 607.933594 301.757812 C 708.554688 292.667969 805.585938 302.074219 904.53125 330.433594 C 1062.585938 375.722656 1264.355469 511.035156 1440 634.949219 L 1440 633.453125 C 1264.4375 509.605469 1062.890625 374.535156 904.863281 329.265625 C 805.75 300.847656 708.570312 291.484375 607.816406 300.53125 L 606.617188 300.636719 C 591.640625 302 577.492188 303.269531 563.21875 305.125 C 508.46875 312.300781 475.550781 319.289062 442.007812 328.070312 C 475.621094 318.601562 508.59375 310.785156 564.113281 302.640625 C 578.789062 300.488281 593.558594 298.902344 608.652344 297.347656 C 710.351562 286.726562 807.589844 294.835938 905.910156 322.101562 C 1069.96875 367.636719 1263.367188 500.585938 1440 627.128906 L 1440 625.625 C 1263.46875 499.167969 1070.273438 366.453125 906.238281 320.933594 C 807.753906 293.609375 710.367188 285.515625 608.53125 296.121094 C 593.421875 297.691406 578.640625 299.277344 563.9375 301.417969 C 509.773438 309.375 477.046875 317 444.269531 326.160156 C 477.015625 316.359375 510.042969 307.832031 564.863281 298.917969 C 579.914062 296.480469 595.15625 294.59375 609.386719 292.921875 C 712.28125 280.730469 809.730469 287.566406 907.300781 313.800781 C 1077.351562 359.464844 1261.035156 489.148438 1440 619.3125 L 1440 617.800781 C 1261.171875 487.742188 1077.652344 358.277344 907.628906 312.601562 C 809.894531 286.355469 712.324219 279.519531 609.234375 291.695312 C 594.992188 293.382812 579.75 295.269531 564.65625 297.71875 C 510.394531 306.535156 477.453125 314.976562 445.035156 324.648438 C 477.269531 314.378906 510.722656 304.980469 565.597656 295.222656 C 581.976562 292.304688 597.984375 290.09375 610.101562 288.507812 C 714.089844 274.734375 811.75 280.28125 908.707031 305.484375 C 1084.460938 351.140625 1264.992188 482.347656 1440 611.535156 L 1440 610.019531 C 1265.125 480.945312 1084.753906 349.957031 909.007812 304.289062 C 811.898438 279.085938 714.058594 273.523438 609.953125 287.28125 C 597.820312 288.882812 581.78125 291.09375 565.386719 294.027344 C 512.039062 303.496094 478.917969 312.644531 447.492188 322.574219 C 478.632812 312.128906 512.488281 301.992188 566.34375 291.515625 C 580.152344 288.882812 594.710938 286.445312 610.835938 284.082031 C 715.855469 268.675781 813.710938 272.953125 910.082031 297.167969 C 1091.519531 342.726562 1260.328125 469.1875 1439.074219 603.078125 C 1439.378906 603.308594 1439.695312 603.542969 1440 603.769531 L 1440 602.25 C 1439.933594 602.203125 1439.871094 602.15625 1439.804688 602.109375 C 1260.972656 468.140625 1092.058594 341.605469 910.382812 295.972656 C 813.875 271.753906 715.839844 267.464844 610.65625 282.855469 C 594.515625 285.230469 579.941406 287.671875 566.105469 290.316406 C 510.554688 301.125 476.261719 311.566406 444.316406 322.359375 C 476.578125 310.777344 510.664062 299.59375 567.078125 287.804688 C 581.828125 284.753906 596.804688 282.003906 611.570312 279.652344 C 717.097656 262.484375 815.207031 265.460938 911.472656 288.835938 C 1094.332031 333.214844 1255.542969 455.800781 1426.222656 585.59375 C 1430.734375 589.027344 1435.460938 592.5625 1440 596.015625 L 1440 594.476562 C 1435.707031 591.214844 1431.238281 587.867188 1426.96875 584.625 C 1256.183594 454.753906 1094.871094 332.09375 911.773438 287.640625 Z M 911.773438 287.640625 " fill-opacity="1" fill-rule="nonzero"/></g></svg>